PathFileType  4	(X/Y/Z) C:\Users\antoi\Documents\MyRepositories\mobilecap\ResultsAnalysis
DataRate	CameraRate	NumFrames	NumMarkers	Units	OrigDataRate	OrigDataStartFrame	OrigNumFrames
100.0	100.0	7	51	mm	100.0	1	125
Frame#	Time	r_knee			r_shank_antsup			r_ankle			r_calc			r_5meta			r_toe			L_knee			L_shank_antsup			L_ankle			L_calc			L_5meta			L_toe			r_sh2			r_sh3			r_sh4			L_sh2			L_sh3			r_thigh1			r_thigh2			r_thigh3			r_thigh4			r_thigh5			L_thigh1			L_thigh2			L_thigh3			L_thigh4			r.ASIS			r.PSIS			L.ASIS			L.PSIS			C7			R_Shoulder			L_Shoulder			R_Sternum			L_Sternum			R_humerus			R_elbow_med			R_elbow_lat			R_forearm			R_wrist_radius			R_wrist_ulna			L_humerus			L_elbow_med			L_elbow_lat			L_forearm			L_wrist_radius			L_wrist_ulna			R_HJC			L_HJC			R_HJC_reg			L_HJC_reg			
		X1	Y1	Z1	X2	Y2	Z2	X3	Y3	Z3	X4	Y4	Z4	X5	Y5	Z5	X6	Y6	Z6	X7	Y7	Z7	X8	Y8	Z8	X9	Y9	Z9	X10	Y10	Z10	X11	Y11	Z11	X12	Y12	Z12	X13	Y13	Z13	X14	Y14	Z14	X15	Y15	Z15	X16	Y16	Z16	X17	Y17	Z17	X18	Y18	Z18	X19	Y19	Z19	X20	Y20	Z20	X21	Y21	Z21	X22	Y22	Z22	X23	Y23	Z23	X24	Y24	Z24	X25	Y25	Z25	X26	Y26	Z26	X27	Y27	Z27	X28	Y28	Z28	X29	Y29	Z29	X30	Y30	Z30	X31	Y31	Z31	X32	Y32	Z32	X33	Y33	Z33	X34	Y34	Z34	X35	Y35	Z35	X36	Y36	Z36	X37	Y37	Z37	X38	Y38	Z38	X39	Y39	Z39	X40	Y40	Z40	X41	Y41	Z41	X42	Y42	Z42	X43	Y43	Z43	X44	Y44	Z44	X45	Y45	Z45	X46	Y46	Z46	X47	Y47	Z47	X48	Y48	Z48	X49	Y49	Z49	X50	Y50	Z50	X51	Y51	Z51	

1	0.00000000	-61.07002	451.17396	-128.48420	-22.81559	391.93806	-108.64025	93.28946	109.86352	-166.12525	54.38555	45.82246	-209.64461	209.34134	116.48309	-140.83190	230.65631	162.50909	-192.64429	-411.74395	455.36957	-362.11048	-414.36497	384.26516	-363.70229	-574.58667	118.79297	-314.12490	-650.77543	102.44463	-264.82429	-503.66036	39.98210	-337.76548	-446.66659	52.71101	-287.07856	25.60693	290.83566	-113.62854	-90.60877	359.89573	-120.22348	-46.49403	253.05116	-131.07431	-493.01313	429.48299	-370.78069	-541.56305	317.45592	-364.97304	-120.57237	754.48104	-123.26407	-72.62255	651.89596	-122.65108	-102.22436	615.37723	-73.20369	-202.69353	719.00598	-54.43416	-159.40533	612.05227	-64.73971	-256.60462	705.01626	-413.79354	-294.40371	572.02279	-400.07318	-369.19571	736.74639	-415.73363	-399.27564	600.60277	-387.27372	-160.32941	876.61177	-132.79107	-352.39020	886.34973	-170.59771	-202.33160	871.76136	-388.14086	-372.19343	890.44346	-273.80972	-289.15747	1359.35774	-243.22068	-242.15067	1297.92427	-85.60804	-224.46250	1304.54854	-402.86666	-177.27764	1269.33757	-221.33423	-176.89590	1269.71294	-266.26990	-291.15557	1064.90393	-3.49016	-342.64183	967.85669	-62.44364	-336.04236	988.33858	7.89288	-305.39212	873.79535	42.31697	-299.87794	754.68929	57.93417	-344.49080	753.10796	52.80414	-152.13257	1198.33358	-445.72786	-133.00119	973.32374	-446.86209	-111.47310	998.92168	-499.53529	-2.71011	970.22506	-481.11010	95.84194	901.26338	-443.07116	87.51062	873.48775	-468.30318	-226.71819	798.57862	-147.78757	-259.98546	800.28570	-345.28966	-221.20954	784.21970	-161.90812	-253.37412	790.86897	-329.54519	
2	0.01000000	-41.60390	451.13159	-130.38162	-4.22540	390.75998	-110.91510	102.54522	105.57492	-167.30188	60.41089	45.22403	-209.76013	218.47590	108.06233	-143.54834	241.25109	152.64249	-195.71228	-397.69051	454.11647	-363.21403	-401.43227	382.70178	-364.51244	-570.57117	122.84717	-314.65000	-647.14316	109.20076	-265.14833	-502.55760	40.67563	-337.71350	-445.28048	52.16609	-287.05180	40.95931	288.18576	-115.71593	-73.04591	360.60751	-120.47813	-32.78280	252.45267	-130.41372	-478.63351	430.32149	-371.91714	-530.86737	319.94987	-365.88612	-102.47212	755.20384	-124.32522	-53.57375	653.19110	-124.34567	-82.29365	616.20553	-74.70696	-183.64171	718.78918	-54.58116	-139.55955	612.15318	-65.78236	-241.60905	703.40884	-414.37346	-279.75760	570.50021	-401.06867	-353.91096	735.60351	-414.76429	-384.27171	599.34900	-387.07502	-143.15030	875.99053	-133.11850	-335.36258	884.50204	-170.56481	-186.08150	869.93569	-388.41999	-355.44446	888.40088	-273.58417	-273.48614	1357.66108	-241.63683	-225.65998	1295.87228	-84.47604	-209.53687	1303.38821	-401.63149	-161.13519	1267.66368	-220.52635	-161.02093	1268.09552	-265.49767	-274.06238	1062.39949	-3.06886	-325.48779	965.54029	-62.31938	-318.94388	985.96094	8.04745	-289.52003	871.16622	42.43104	-285.47755	751.92147	57.88941	-330.33580	751.03768	52.85830	-137.44752	1197.26791	-445.16265	-118.55278	972.23574	-446.96768	-96.83499	998.01238	-499.51831	11.98620	969.50293	-480.60852	110.44004	900.30592	-442.26174	102.38891	872.85739	-467.89053	-209.23348	797.54107	-147.73258	-243.13258	798.39154	-345.12741	-203.61968	782.77104	-162.00981	-236.29974	789.11365	-329.65427	
3	0.02000000	-22.44345	451.02908	-132.22807	14.04002	389.55730	-113.13837	111.56214	101.52836	-168.54219	66.15858	45.08200	-210.06845	227.13415	99.51033	-146.05120	251.64232	142.49661	-198.55704	-383.05835	452.82169	-364.39613	-388.12873	381.10039	-365.45616	-566.14557	127.16096	-315.12458	-643.01019	116.43689	-265.38258	-501.33678	41.50874	-337.63037	-443.78674	51.61301	-287.00657	56.08977	285.59981	-117.85904	-55.74430	361.25590	-120.88630	-19.20063	251.87102	-130.05351	-463.79347	431.15997	-373.07674	-519.75014	322.57518	-366.77458	-84.38195	755.84430	-125.28030	-34.68390	654.31000	-125.95685	-62.72523	616.85409	-76.25877	-164.76235	718.56930	-54.79132	-120.06681	612.18926	-66.94146	-226.32594	701.91749	-414.90299	-264.69281	569.04144	-402.08022	-338.28686	734.40339	-413.70728	-368.86354	598.04464	-386.88072	-125.87244	875.43352	-133.39435	-318.25320	882.78231	-170.50017	-169.64813	868.21022	-388.65737	-338.57454	886.49579	-273.38342	-257.73167	1356.09041	-239.97084	-209.03923	1293.91185	-83.26571	-194.55347	1302.32834	-400.33549	-144.93936	1266.11328	-219.64076	-145.08621	1266.61178	-264.64221	-256.80423	1059.96987	-2.60561	-308.22306	963.32069	-62.14938	-301.69650	983.64419	8.24892	-273.44745	868.61089	42.54952	-270.85455	749.24155	57.82916	-315.91658	749.02179	52.89657	-122.76214	1196.25541	-444.57287	-104.28101	971.16078	-447.07506	-82.38409	997.12028	-499.52658	26.47680	968.68647	-480.20522	124.76458	899.18430	-441.56425	116.92876	872.04213	-467.57291	-191.68084	796.58991	-147.64570	-226.14787	796.61136	-344.94394	-185.97109	781.41782	-162.08270	-219.08734	787.46662	-329.74710	
4	0.03000000	-3.82683	450.85243	-133.97766	31.73603	388.34551	-115.26251	120.13695	97.91581	-169.87084	71.40832	45.66733	-210.66225	234.94186	90.82576	-148.19290	261.60347	131.96350	-201.03211	-367.33893	451.44511	-365.72801	-374.11012	379.45714	-366.64913	-560.92237	131.94940	-315.52093	-637.88809	124.57909	-265.46501	-499.89598	42.61236	-337.49000	-442.08906	51.04556	-286.93955	70.82438	283.15471	-120.05858	-38.90056	361.82821	-121.57064	-5.83889	251.35739	-130.21785	-448.07882	432.01686	-374.28519	-507.82450	325.44885	-367.61972	-66.33353	756.34998	-126.03966	-16.09789	655.12831	-127.40917	-43.80517	617.20786	-77.86485	-146.20591	718.36261	-55.09102	-101.21839	612.12601	-68.27834	-210.48474	700.62868	-415.33203	-248.83129	567.69605	-403.13175	-322.04648	733.09639	-412.51604	-352.69512	596.63980	-386.71777	-108.44407	874.99523	-133.57988	-301.01517	881.31398	-170.38226	-152.89296	866.68049	-388.82175	-321.49400	884.84158	-273.22764	-241.83179	1354.75471	-238.16439	-192.19078	1292.13030	-81.92255	-179.46588	1301.45911	-398.93673	-128.65439	1264.79739	-218.61856	-129.04636	1265.37978	-263.64027	-239.23703	1057.68657	-2.07224	-290.75364	961.28338	-61.89611	-284.17334	981.44836	8.53419	-257.00591	866.19710	42.67468	-255.81539	746.72724	57.73757	-301.01343	747.11111	52.90637	-108.07602	1195.34284	-443.93809	-90.34728	970.12215	-447.18860	-68.27523	996.26483	-499.57590	40.56575	967.68837	-479.96441	138.58847	897.75813	-441.07497	130.85214	870.89159	-467.43088	-174.02624	795.80260	-147.50284	-208.93874	795.04825	-344.72529	-168.25490	780.27110	-162.09410	-201.64738	786.02085	-329.80194	
5	0.04000000	14.10919	450.65594	-135.59147	48.73023	387.19387	-117.24250	128.10525	94.85244	-171.25781	76.01303	46.98585	-211.49087	241.67935	82.20015	-149.92154	270.87276	121.19779	-203.10033	-350.16061	449.95117	-367.26897	-359.08847	377.81425	-368.17556	-554.55719	137.34877	-315.84831	-631.31041	133.94310	-265.38004	-498.15312	44.10904	-337.27523	-440.10327	50.47155	-286.87468	85.04305	280.93897	-122.23791	-22.62711	362.38886	-122.58861	7.23586	251.00930	-130.98855	-431.16437	432.93145	-375.56856	-494.76769	328.65610	-368.41351	-48.40336	756.72574	-126.54343	2.05637	655.61888	-128.64008	-25.69892	617.26379	-79.46513	-128.09399	718.21874	-55.44994	-83.20137	611.98595	-69.76441	-193.86160	699.58290	-415.61337	-231.87967	566.49369	-404.25704	-305.03080	731.65077	-411.21086	-335.50502	595.08647	-386.64835	-90.89921	874.71962	-133.65307	-283.66997	880.20950	-170.21039	-135.76276	865.43294	-388.89546	-304.17944	883.51443	-273.13363	-225.76959	1353.73643	-236.20026	-175.08072	1290.60875	-80.43189	-164.25460	1300.85259	-397.42427	-112.28148	1263.80489	-217.43404	-112.89112	1264.48975	-262.46314	-221.26441	1055.61869	-1.46372	-273.02333	959.49840	-61.53670	-266.29390	979.43421	8.92281	-240.08662	863.98592	42.80405	-240.22170	744.44294	57.59908	-285.48482	745.35389	52.88164	-93.39754	1194.56765	-443.24680	-76.88754	969.15903	-447.31290	-54.61911	995.47013	-499.66646	54.06985	966.43761	-479.89716	151.75186	895.92970	-440.86376	143.96997	869.31260	-467.52153	-156.30293	795.24476	-147.29115	-191.48619	793.78705	-344.46811	-150.54584	779.46009	-162.00557	-183.97785	784.84629	-329.78801	
6	0.05000000	31.34733	450.55642	-137.03686	65.00096	386.20848	-119.03158	135.32093	92.38239	-172.63467	79.87931	48.82967	-212.39421	247.27450	73.98258	-151.26428	279.16981	110.58331	-204.81174	-331.30345	448.30832	-369.07037	-342.83232	376.24165	-370.08736	-546.75635	143.41377	-316.15560	-622.82099	144.71404	-265.16138	-496.04836	46.12644	-336.97651	-437.75917	49.92714	-286.86904	98.66154	279.03716	-124.26685	-6.95959	363.07519	-123.90496	19.94534	250.95858	-132.27415	-412.81271	433.95042	-376.94795	-480.31667	332.24276	-369.16040	-30.70085	757.05641	-126.76739	19.68965	655.88252	-129.60154	-8.42370	617.15092	-80.94122	-110.50214	718.22752	-55.78569	-66.05636	611.86747	-71.27935	-176.28697	698.77463	-415.70725	-213.63507	565.44530	-405.49788	-287.20162	730.05795	-409.87812	-317.12882	593.33542	-386.77064	-73.34933	874.64854	-133.60033	-266.30296	879.56280	-170.01376	-118.28738	864.54026	-388.86844	-286.67549	882.55370	-273.12291	-209.56979	1353.09199	-234.10343	-157.73278	1289.42033	-78.81847	-148.91895	1300.55911	-395.81738	-95.85018	1263.19705	-216.09744	-96.64158	1263.99791	-261.11818	-202.83440	1053.83378	-0.79834	-255.00537	958.02198	-61.06525	-248.01538	977.66285	9.41549	-222.63062	862.03308	42.92896	-223.98371	742.44076	57.39995	-269.25750	743.79813	52.82466	-78.73675	1193.95729	-442.49887	-63.98869	968.32209	-447.44660	-41.47535	994.76470	-499.78288	66.83478	964.88575	-479.96190	164.17046	893.64920	-440.97160	156.18965	867.26919	-467.87825	-138.60806	794.97376	-147.00650	-173.83625	792.89088	-344.17720	-132.98251	779.11956	-161.77152	-166.15482	783.99016	-329.66383	
7	0.06000000	47.95806	450.70033	-138.27778	80.58581	385.49635	-120.57273	141.63554	90.50518	-173.92384	82.95061	50.89634	-213.18688	251.75716	66.57743	-152.28200	286.24005	100.61767	-206.24620	-310.69076	446.49026	-371.17851	-325.16520	374.80170	-372.40771	-537.28924	150.13311	-316.51891	-611.97779	156.93594	-264.87696	-493.53635	48.81349	-336.58997	-435.00354	49.49108	-287.00614	111.59343	277.51155	-126.00742	8.09946	364.05866	-125.38095	32.16342	251.33941	-133.83318	-392.86355	435.10318	-378.43462	-464.26292	336.21029	-369.87563	-13.34294	757.50613	-126.71828	36.76493	656.13908	-130.25667	8.12797	617.10791	-82.14771	-93.45766	718.51278	-55.99052	-49.67854	611.94024	-72.64090	-157.66518	698.17025	-415.59093	-193.98721	564.55076	-406.89469	-268.61773	728.32772	-408.64656	-297.49321	591.33795	-387.20378	-55.95241	874.83315	-133.40201	-249.04268	879.44079	-169.85458	-100.56051	864.05646	-388.72730	-269.08392	881.97103	-273.23151	-193.28791	1352.85881	-231.93107	-140.21299	1288.62832	-77.13508	-133.46899	1300.60755	-394.15692	-79.40757	1263.00653	-214.64831	-80.34280	1263.92707	-259.64130	-183.93541	1052.39773	-0.11031	-236.69235	956.90118	-60.49177	-229.32091	976.19419	9.99739	-204.61257	860.39183	43.03544	-207.04824	740.76494	57.13044	-252.30374	742.49428	52.74613	-64.10237	1193.53052	-441.70529	-51.67362	967.66290	-447.57482	-28.86175	994.17874	-499.89836	78.76140	963.01729	-480.08703	175.82200	890.91131	-441.41524	167.49629	864.76917	-468.51602	-121.08347	795.04447	-146.64715	-156.07523	792.40039	-343.85921	-115.72339	779.36674	-161.33894	-148.30251	783.48203	-329.37764	
